<mxfile host="app.diagrams.net" modified="2022-12-29T02:32:23.031Z" agent="5.0 (Windows NT 10.0; Win64; x64) AppleWebKit/537.36 (KHTML, like Gecko) Chrome/108.0.0.0 Safari/537.36 Edg/108.0.1462.54" etag="HlvgF0Wt9uhnmywKlkfo" version="20.7.4" type="github">
  <diagram id="3228e29e-7158-1315-38df-8450db1d8a1d" name="Page-1">
    <mxGraphModel dx="880" dy="595" grid="1" gridSize="10" guides="1" tooltips="1" connect="1" arrows="1" fold="1" page="1" pageScale="1" pageWidth="1169" pageHeight="827" background="none" math="0" shadow="0">
      <root>
        <mxCell id="0" />
        <mxCell id="1" parent="0" />
        <mxCell id="9zgvyIf16AGM_8idpf3g-21541" value="" style="rounded=0;whiteSpace=wrap;html=1;fillColor=#008a00;fontColor=#ffffff;strokeColor=#005700;" vertex="1" parent="1">
          <mxGeometry x="250" y="150" width="120" height="60" as="geometry" />
        </mxCell>
        <mxCell id="9zgvyIf16AGM_8idpf3g-21542" value="" style="ellipse;whiteSpace=wrap;html=1;fillColor=#a20025;strokeColor=#6F0000;fontColor=#ffffff;" vertex="1" parent="1">
          <mxGeometry x="390" y="60" width="120" height="80" as="geometry" />
        </mxCell>
        <mxCell id="9zgvyIf16AGM_8idpf3g-21543" value="" style="ellipse;whiteSpace=wrap;html=1;aspect=fixed;fillColor=#0050ef;fontColor=#ffffff;strokeColor=#001DBC;" vertex="1" parent="1">
          <mxGeometry x="600" y="30" width="80" height="80" as="geometry" />
        </mxCell>
        <mxCell id="9zgvyIf16AGM_8idpf3g-21544" value="" style="triangle;whiteSpace=wrap;html=1;fillColor=#99004D;" vertex="1" parent="1">
          <mxGeometry x="200" y="240" width="60" height="80" as="geometry" />
        </mxCell>
        <mxCell id="9zgvyIf16AGM_8idpf3g-21545" value="" style="shape=xor;whiteSpace=wrap;html=1;fillColor=#60a917;fontColor=#ffffff;strokeColor=#2D7600;" vertex="1" parent="1">
          <mxGeometry x="710" y="130" width="40" height="180" as="geometry" />
        </mxCell>
        <mxCell id="9zgvyIf16AGM_8idpf3g-21546" value="Actor" style="shape=umlActor;verticalLabelPosition=bottom;verticalAlign=top;html=1;outlineConnect=0;fillColor=#99004D;" vertex="1" parent="1">
          <mxGeometry x="140" y="330" width="30" height="60" as="geometry" />
        </mxCell>
        <mxCell id="9zgvyIf16AGM_8idpf3g-21547" value="" style="shape=flexArrow;endArrow=classic;html=1;rounded=0;fillColor=#1ba1e2;strokeColor=#006EAF;" edge="1" parent="1">
          <mxGeometry width="50" height="50" relative="1" as="geometry">
            <mxPoint x="630" y="450" as="sourcePoint" />
            <mxPoint x="680" y="400" as="targetPoint" />
          </mxGeometry>
        </mxCell>
        <mxCell id="9zgvyIf16AGM_8idpf3g-21548" value="" style="html=1;whiteSpace=wrap;shape=isoCube2;backgroundOutline=1;isoAngle=15;fillColor=none;" vertex="1" parent="1">
          <mxGeometry x="540" y="150" width="90" height="100" as="geometry" />
        </mxCell>
        <mxCell id="9zgvyIf16AGM_8idpf3g-21549" value="" style="verticalLabelPosition=bottom;verticalAlign=top;html=1;shape=mxgraph.basic.half_circle;fillColor=#6a00ff;fontColor=#ffffff;strokeColor=#3700CC;" vertex="1" parent="1">
          <mxGeometry x="260" y="414" width="100" height="50" as="geometry" />
        </mxCell>
        <mxCell id="9zgvyIf16AGM_8idpf3g-21550" value="" style="shape=message;html=1;html=1;outlineConnect=0;labelPosition=center;verticalLabelPosition=bottom;align=center;verticalAlign=top;fillColor=none;" vertex="1" parent="1">
          <mxGeometry x="420" y="380" width="60" height="40" as="geometry" />
        </mxCell>
        <mxCell id="9zgvyIf16AGM_8idpf3g-21551" value="" style="shape=mxgraph.signs.animals.bear_1;html=1;pointerEvents=1;fillColor=#60a917;strokeColor=#2D7600;verticalLabelPosition=bottom;verticalAlign=top;align=center;sketch=0;fontColor=#ffffff;" vertex="1" parent="1">
          <mxGeometry x="70" y="140" width="98" height="62" as="geometry" />
        </mxCell>
        <mxCell id="9zgvyIf16AGM_8idpf3g-21552" value="" style="shape=mxgraph.signs.animals.deer_1;html=1;pointerEvents=1;fillColor=#d80073;strokeColor=#A50040;verticalLabelPosition=bottom;verticalAlign=top;align=center;sketch=0;fontColor=#ffffff;" vertex="1" parent="1">
          <mxGeometry x="278" y="250" width="82" height="98" as="geometry" />
        </mxCell>
        <mxCell id="9zgvyIf16AGM_8idpf3g-21553" value="" style="shape=mxgraph.signs.animals.sloth;html=1;pointerEvents=1;fillColor=#0050ef;strokeColor=#001DBC;verticalLabelPosition=bottom;verticalAlign=top;align=center;sketch=0;fontColor=#ffffff;" vertex="1" parent="1">
          <mxGeometry x="151" y="69" width="99" height="81" as="geometry" />
        </mxCell>
        <mxCell id="9zgvyIf16AGM_8idpf3g-21554" value="" style="shape=mxgraph.signs.animals.seal;html=1;pointerEvents=1;fillColor=#000000;strokeColor=none;verticalLabelPosition=bottom;verticalAlign=top;align=center;sketch=0;" vertex="1" parent="1">
          <mxGeometry x="390" y="470" width="100" height="92" as="geometry" />
        </mxCell>
        <mxCell id="9zgvyIf16AGM_8idpf3g-21555" value="" style="shape=mxgraph.signs.animals.kennel;html=1;pointerEvents=1;fillColor=#60a917;strokeColor=#2D7600;verticalLabelPosition=bottom;verticalAlign=top;align=center;sketch=0;fontColor=#ffffff;" vertex="1" parent="1">
          <mxGeometry x="400" y="260" width="97" height="94" as="geometry" />
        </mxCell>
        <mxCell id="9zgvyIf16AGM_8idpf3g-21556" value="" style="shape=mxgraph.signs.food.food_truck;html=1;pointerEvents=1;fillColor=#6a00ff;strokeColor=#3700CC;verticalLabelPosition=bottom;verticalAlign=top;align=center;sketch=0;fontColor=#ffffff;" vertex="1" parent="1">
          <mxGeometry x="536" y="298" width="184" height="82" as="geometry" />
        </mxCell>
        <mxCell id="9zgvyIf16AGM_8idpf3g-21557" value="" style="shape=mxgraph.signs.people.unisex;html=1;pointerEvents=1;fillColor=#000000;strokeColor=none;verticalLabelPosition=bottom;verticalAlign=top;align=center;sketch=0;" vertex="1" parent="1">
          <mxGeometry x="105.5" y="460" width="99" height="93" as="geometry" />
        </mxCell>
        <mxCell id="9zgvyIf16AGM_8idpf3g-21558" value="" style="shape=mxgraph.signs.people.shower_2;html=1;pointerEvents=1;fillColor=#000000;strokeColor=none;verticalLabelPosition=bottom;verticalAlign=top;align=center;sketch=0;" vertex="1" parent="1">
          <mxGeometry x="262" y="38" width="98" height="92" as="geometry" />
        </mxCell>
        <mxCell id="9zgvyIf16AGM_8idpf3g-21559" value="" style="shape=mxgraph.signs.people.shower_1;html=1;pointerEvents=1;fillColor=#000000;strokeColor=none;verticalLabelPosition=bottom;verticalAlign=top;align=center;sketch=0;" vertex="1" parent="1">
          <mxGeometry x="740" y="400" width="150" height="145" as="geometry" />
        </mxCell>
        <mxCell id="9zgvyIf16AGM_8idpf3g-21560" value="" style="shape=mxgraph.signs.people.changing_station;html=1;pointerEvents=1;fillColor=#000000;strokeColor=none;verticalLabelPosition=bottom;verticalAlign=top;align=center;sketch=0;" vertex="1" parent="1">
          <mxGeometry x="390" y="162" width="94" height="98" as="geometry" />
        </mxCell>
        <mxCell id="9zgvyIf16AGM_8idpf3g-21561" value="" style="shape=mxgraph.signs.safety.non-ionizing_radiation;html=1;pointerEvents=1;fillColor=#000000;strokeColor=none;verticalLabelPosition=bottom;verticalAlign=top;align=center;sketch=0;" vertex="1" parent="1">
          <mxGeometry x="750" y="47" width="98" height="83" as="geometry" />
        </mxCell>
        <mxCell id="9zgvyIf16AGM_8idpf3g-21562" value="" style="shape=mxgraph.signs.safety.store_right_up_2;html=1;pointerEvents=1;fillColor=#000000;strokeColor=none;verticalLabelPosition=bottom;verticalAlign=top;align=center;sketch=0;" vertex="1" parent="1">
          <mxGeometry x="400" y="260" width="98" height="98" as="geometry" />
        </mxCell>
        <mxCell id="9zgvyIf16AGM_8idpf3g-21563" value="" style="shape=mxgraph.signs.safety.store_right_up_1;html=1;pointerEvents=1;fillColor=#fad9d5;strokeColor=#ae4132;verticalLabelPosition=bottom;verticalAlign=top;align=center;sketch=0;" vertex="1" parent="1">
          <mxGeometry x="790" y="221" width="70" height="99" as="geometry" />
        </mxCell>
        <mxCell id="9zgvyIf16AGM_8idpf3g-21564" value="" style="shape=mxgraph.signs.science.magnet;html=1;pointerEvents=1;fillColor=#000000;strokeColor=none;verticalLabelPosition=bottom;verticalAlign=top;align=center;sketch=0;" vertex="1" parent="1">
          <mxGeometry x="511" y="11" width="74" height="99" as="geometry" />
        </mxCell>
        <mxCell id="9zgvyIf16AGM_8idpf3g-21565" value="" style="shape=mxgraph.signs.safety.high_voltage_1;html=1;pointerEvents=1;fillColor=#000000;strokeColor=none;verticalLabelPosition=bottom;verticalAlign=top;align=center;sketch=0;" vertex="1" parent="1">
          <mxGeometry x="360" y="400" width="49" height="98" as="geometry" />
        </mxCell>
        <mxCell id="9zgvyIf16AGM_8idpf3g-21566" value="" style="shape=mxgraph.signs.safety.high_voltage_3;html=1;pointerEvents=1;fillColor=#e51400;strokeColor=#B20000;verticalLabelPosition=bottom;verticalAlign=top;align=center;sketch=0;fontColor=#ffffff;" vertex="1" parent="1">
          <mxGeometry x="540" y="440" width="99" height="88" as="geometry" />
        </mxCell>
        <mxCell id="9zgvyIf16AGM_8idpf3g-21567" value="" style="shape=mxgraph.signs.sports.fish_cleaning;html=1;pointerEvents=1;fillColor=#647687;strokeColor=#314354;verticalLabelPosition=bottom;verticalAlign=top;align=center;sketch=0;fontColor=#ffffff;" vertex="1" parent="1">
          <mxGeometry x="776" y="348" width="98" height="63" as="geometry" />
        </mxCell>
        <mxCell id="9zgvyIf16AGM_8idpf3g-21568" value="" style="shape=mxgraph.signs.tech.telephone_2;html=1;pointerEvents=1;fillColor=#000000;strokeColor=none;verticalLabelPosition=bottom;verticalAlign=top;align=center;sketch=0;" vertex="1" parent="1">
          <mxGeometry x="115" y="221" width="36" height="98" as="geometry" />
        </mxCell>
        <mxCell id="9zgvyIf16AGM_8idpf3g-21569" value="" style="shape=mxgraph.signs.tech.telephone_4;html=1;pointerEvents=1;fillColor=#000000;strokeColor=none;verticalLabelPosition=bottom;verticalAlign=top;align=center;sketch=0;" vertex="1" parent="1">
          <mxGeometry x="620" y="162" width="71" height="99" as="geometry" />
        </mxCell>
        <mxCell id="9zgvyIf16AGM_8idpf3g-21570" value="" style="shape=mxgraph.signs.tech.camera_2;html=1;pointerEvents=1;fillColor=#000000;strokeColor=none;verticalLabelPosition=bottom;verticalAlign=top;align=center;sketch=0;" vertex="1" parent="1">
          <mxGeometry x="240" y="510" width="99" height="72" as="geometry" />
        </mxCell>
        <mxCell id="9zgvyIf16AGM_8idpf3g-21571" value="" style="shape=mxgraph.signs.transportation.airplane_3;html=1;pointerEvents=1;fillColor=#e51400;strokeColor=#B20000;verticalLabelPosition=bottom;verticalAlign=top;align=center;sketch=0;fontColor=#ffffff;" vertex="1" parent="1">
          <mxGeometry x="510" y="260" width="97" height="98" as="geometry" />
        </mxCell>
        <mxCell id="9zgvyIf16AGM_8idpf3g-21572" value="" style="shape=mxgraph.signs.transportation.car_4;html=1;pointerEvents=1;fillColor=#0000FF;strokeColor=none;verticalLabelPosition=bottom;verticalAlign=top;align=center;sketch=0;" vertex="1" parent="1">
          <mxGeometry x="860" y="110" width="98" height="86" as="geometry" />
        </mxCell>
        <mxCell id="9zgvyIf16AGM_8idpf3g-21573" value="" style="shape=mxgraph.signs.travel.upstairs;html=1;pointerEvents=1;fillColor=#000000;strokeColor=none;verticalLabelPosition=bottom;verticalAlign=top;align=center;sketch=0;" vertex="1" parent="1">
          <mxGeometry x="940" y="320" width="98" height="85" as="geometry" />
        </mxCell>
      </root>
    </mxGraphModel>
  </diagram>
</mxfile>
